<svg width="325" height="60" viewBox="0 0 325 60" fill="none" xmlns="http://www.w3.org/2000/svg">
<rect width="325" height="60" rx="3" fill="white"/>
<path d="M297.467 45C294.571 41.692 292.068 38.2905 289.994 34.59C288.761 32.4034 287.696 30.1606 287.229 27.6936C286.426 23.4138 287.733 19.8254 291.19 17.2089C294.665 14.5924 298.513 14.2934 302.343 16.3492C306.21 18.405 308.06 21.8065 307.854 26.1798C307.798 27.5254 307.424 28.8898 306.939 30.1606C304.865 35.7301 301.334 40.365 297.467 45ZM297.429 21.8065C295.374 21.8065 293.693 23.4885 293.712 25.5444C293.712 27.6002 295.393 29.2822 297.448 29.2822C299.503 29.2822 301.185 27.6002 301.185 25.5444C301.166 23.4885 299.503 21.8065 297.429 21.8065Z" fill="#E5E5E5"/>
</svg>
